<svg width="747" height="144" viewBox="0 0 747 144" fill="none" xmlns="http://www.w3.org/2000/svg">
<path opacity="0.3" d="M44.707 122.055C35.0391 122.055 28.5938 117.172 28.5938 109.359C28.5938 101.938 34.6484 97.1523 45.293 96.3711L67.3633 95.0039V102.621C67.3633 113.949 57.1094 122.055 44.707 122.055ZM35.332 142.66C48.418 142.66 61.4062 136.117 67.2656 124.984H67.8516V141H95.3906V69.0273C95.3906 47.9336 77.9102 34.0664 51.0547 34.0664C23.3203 34.0664 6.03516 48.0312 4.96094 68.3438H31.0352C32.4023 60.6289 39.1406 55.3555 49.7852 55.3555C60.5273 55.3555 67.3633 61.0195 67.3633 70.7852V77.7188L40.9961 79.2812C14.9219 80.8438 0.273438 91.8789 0.273438 110.922C0.273438 129.77 15.4102 142.66 35.332 142.66ZM176.055 142.66C202.422 142.66 218.535 122.348 218.535 88.6562C218.535 54.8672 202.324 34.6523 175.957 34.6523C161.016 34.6523 149.395 42.0742 143.633 54.4766H143.047V0.0820312H114.531V141H142.656V123.031H143.242C149.004 135.238 160.723 142.66 176.055 142.66ZM166.191 57.5039C180.352 57.5039 189.336 69.6133 189.336 88.6562C189.336 107.797 180.449 119.711 166.191 119.711C152.324 119.711 142.949 107.602 142.949 88.6562C142.949 69.9062 152.422 57.5039 166.191 57.5039ZM281.426 143.246C313.066 143.246 333.281 123.031 333.281 88.5586C333.281 54.5742 312.773 34.0664 281.426 34.0664C250.078 34.0664 229.57 54.6719 229.57 88.5586C229.57 122.934 249.785 143.246 281.426 143.246ZM281.426 121.469C267.363 121.469 258.477 109.652 258.477 88.6562C258.477 67.8555 267.559 55.8438 281.426 55.8438C295.293 55.8438 304.277 67.8555 304.277 88.6562C304.277 109.652 295.391 121.469 281.426 121.469ZM444.707 36.3125H416.191V96.2734C416.191 110.141 408.281 119.223 395.586 119.223C382.988 119.223 376.055 111.801 376.055 97.8359V36.3125H347.539V103.793C347.539 128.207 362.578 142.953 385.234 142.953C401.055 142.953 411.406 135.336 416.582 122.152H417.168V141H444.707V36.3125ZM470.879 12.1914V36.3125H456.133V57.7969H470.879V112.777C470.879 133.188 480.449 141.391 505.059 141.391C510.82 141.391 515.703 140.902 518.633 140.219V119.223C516.875 119.516 514.238 119.711 511.699 119.711C503.301 119.711 499.395 115.902 499.395 107.895V57.7969H518.73V36.3125H499.395V12.1914H470.879ZM670.684 36.3125H642.168V96.2734C642.168 110.141 634.258 119.223 621.562 119.223C608.965 119.223 602.031 111.801 602.031 97.8359V36.3125H573.516V103.793C573.516 128.207 588.555 142.953 611.211 142.953C627.031 142.953 637.383 135.336 642.559 122.152H643.145V141H670.684V36.3125ZM687.48 67.0742C687.48 82.5039 697.637 92.8555 717.461 97.3477L736.797 101.645C746.172 103.891 749.688 106.82 749.688 112.094C749.688 118.93 743.145 123.227 732.305 123.227C720.977 123.227 714.043 118.148 712.676 109.359H684.844C686.406 129.77 703.594 143.246 731.523 143.246C759.16 143.246 778.105 129.672 778.105 109.066C778.105 93.4414 769.609 85.1406 748.613 80.4531L728.594 76.1562C719.414 74.0078 714.922 70.4922 714.922 65.3164C714.922 58.5781 721.367 54.0859 731.23 54.0859C741.777 54.0859 748.516 59.2617 749.102 67.6602H775.371C774.98 47.3477 757.891 34.0664 731.621 34.0664C704.766 34.0664 687.48 47.1523 687.48 67.0742Z" fill="#373737"/>
</svg>
