<svg width="1147" height="163" viewBox="0 0 1147 163" fill="none" xmlns="http://www.w3.org/2000/svg">
<path opacity="0.3" d="M100.888 78.857C99.3209 49.5587 77.1362 27.9769 42.1712 27.9769C3.46853 27.9769 -21.2481 53.7786 -21.2481 95.2544C-21.2481 137.454 3.46853 162.773 42.4123 162.773C76.4128 162.773 99.2004 143.12 101.009 112.616H68.2141C66.0439 126.723 56.8806 135.163 42.7741 135.163C25.2915 135.163 14.4403 120.694 14.4403 95.2544C14.4403 70.2966 25.2915 55.5872 42.6535 55.5872C57.1218 55.5872 66.1645 65.2327 68.2141 78.857H100.888ZM177.329 162.773C216.394 162.773 241.351 137.815 241.351 95.2544C241.351 53.2964 216.032 27.9769 177.329 27.9769C138.626 27.9769 113.307 53.4169 113.307 95.2544C113.307 137.695 138.265 162.773 177.329 162.773ZM177.329 135.886C159.967 135.886 148.995 121.297 148.995 95.375C148.995 69.6938 160.208 54.8638 177.329 54.8638C194.45 54.8638 205.542 69.6938 205.542 95.375C205.542 121.297 194.571 135.886 177.329 135.886ZM259.557 160H294.763V85.85C294.763 69.0909 304.771 57.5163 320.565 57.5163C336.36 57.5163 344.317 67.1618 344.317 84.0415V160H379.524V76.6868C379.524 46.4239 363.367 28.3386 334.672 28.3386C314.778 28.3386 301.154 37.743 294.281 53.7786H293.558V30.7499H259.557V160ZM411.233 0.969383V30.7499H393.027V57.2751H411.233V125.156C411.233 150.354 423.049 160.482 453.432 160.482C460.546 160.482 466.574 159.879 470.191 159.035V133.113C468.021 133.475 464.766 133.716 461.631 133.716C451.262 133.716 446.439 129.014 446.439 119.127V57.2751H470.312V30.7499H446.439V0.969383H411.233ZM538.313 136.61C526.377 136.61 518.419 130.581 518.419 120.936C518.419 111.772 525.894 105.864 539.036 104.9L566.285 103.212V112.616C566.285 126.602 553.625 136.61 538.313 136.61ZM526.738 162.05C542.895 162.05 558.93 153.972 566.164 140.227H566.888V160H600.888V71.1406C600.888 45.0977 579.306 27.9769 546.15 27.9769C511.908 27.9769 490.568 45.2182 489.241 70.2966H521.433C523.121 60.7716 531.441 54.2609 544.583 54.2609C557.845 54.2609 566.285 61.2539 566.285 73.3108V81.8712L533.731 83.8003C501.539 85.7294 483.454 99.3538 483.454 122.865C483.454 146.135 502.142 162.05 526.738 162.05ZM741.11 78.857C739.543 49.5587 717.358 27.9769 682.393 27.9769C643.69 27.9769 618.974 53.7786 618.974 95.2544C618.974 137.454 643.69 162.773 682.634 162.773C716.635 162.773 739.422 143.12 741.231 112.616H708.436C706.266 126.723 697.102 135.163 682.996 135.163C665.513 135.163 654.662 120.694 654.662 95.2544C654.662 70.2966 665.513 55.5872 682.875 55.5872C697.344 55.5872 706.386 65.2327 708.436 78.857H741.11ZM767.635 0.969383V30.7499H749.429V57.2751H767.635V125.156C767.635 150.354 779.451 160.482 809.835 160.482C816.948 160.482 822.977 159.879 826.594 159.035V133.113C824.423 133.475 821.168 133.716 818.033 133.716C807.664 133.716 802.842 129.014 802.842 119.127V57.2751H826.714V30.7499H802.842V0.969383H767.635ZM1014.32 30.7499H979.114V104.779C979.114 121.9 969.347 133.113 953.673 133.113C938.12 133.113 929.56 123.95 929.56 106.708V30.7499H894.353V114.063C894.353 144.205 912.921 162.411 940.893 162.411C960.425 162.411 973.206 153.007 979.596 136.73H980.319V160H1014.32V30.7499ZM1035.06 68.7292C1035.06 87.7791 1047.6 100.559 1072.07 106.106L1095.95 111.411C1107.52 114.184 1111.86 117.801 1111.86 124.312C1111.86 132.751 1103.78 138.056 1090.4 138.056C1076.41 138.056 1067.85 131.787 1066.16 120.936H1031.8C1033.73 146.135 1054.95 162.773 1089.43 162.773C1123.56 162.773 1146.95 146.014 1146.95 120.574C1146.95 101.283 1136.46 91.0345 1110.53 85.2472L1085.82 79.9421C1074.48 77.2896 1068.94 72.9491 1068.94 66.559C1068.94 58.2397 1076.9 52.6935 1089.07 52.6935C1102.09 52.6935 1110.41 59.0837 1111.14 69.4526H1143.57C1143.09 44.3743 1121.99 27.9769 1089.55 27.9769C1056.4 27.9769 1035.06 44.1331 1035.06 68.7292Z" fill="#373737"/>
</svg>
